<svg xmlns="http://www.w3.org/2000/svg" width="384pt" height="384pt" viewBox="0 0 384 384" version="1.1" class="iconadda">
<g>
<g id="Man_free_icon_a77mF8x-0"><path style=" stroke:none;fill-rule:nonzero;fill:#7f625e;fill-opacity:1;" d="M 321.171875 321.664062 L 321.171875 378.375 L 62.828125 378.375 L 62.828125 321.664062 C 62.828125 273.246094 102.078125 233.992188 150.5 233.992188 L 233.503906 233.992188 C 281.921875 233.992188 321.171875 273.246094 321.171875 321.664062 " />
</g><g id="Man_free_icon_a77mF8x-1"><path style=" stroke:none;fill-rule:nonzero;fill:#6b524e;fill-opacity:1;" d="M 321.171875 321.660156 L 321.171875 378.375 L 296.167969 378.375 L 296.167969 321.660156 C 296.167969 310.285156 294 299.414062 290.054688 289.441406 C 286.183594 279.652344 273.890625 276.328125 265.53125 282.726562 C 259.929688 287.011719 254.257812 292.140625 249.042969 298.203125 L 261.621094 321.523438 C 263.199219 324.457031 262.652344 328.078125 260.285156 330.421875 L 228.375 361.945312 L 155.699219 361.945312 L 123.785156 330.421875 C 121.417969 328.078125 120.875 324.457031 122.453125 321.523438 L 135.03125 298.199219 C 122.019531 283.070312 105.855469 274.328125 95.65625 268.777344 C 91.613281 266.578125 88.6875 264.140625 86.640625 261.601562 C 102.625 244.605469 125.316406 233.996094 150.496094 233.996094 L 233.503906 233.996094 C 281.921875 233.992188 321.171875 273.242188 321.171875 321.660156 " />
</g><g id="Man_free_icon_a77mF8x-2"><path style="fill:none;stroke-width:15;stroke-linecap:round;stroke-linejoin:round;stroke:rgb(0%,0%,0%);stroke-opacity:1;stroke-miterlimit:10;" d="M -0.00148361 0.000242798 L -0.00148361 -73.749978 " transform="matrix(0.749998,0,0,-0.749998,276.008925,323.062682)" />
</g><g id="Man_free_icon_a77mF8x-3"><path style="fill:none;stroke-width:15;stroke-linecap:round;stroke-linejoin:round;stroke:rgb(0%,0%,0%);stroke-opacity:1;stroke-miterlimit:10;" d="M 0.000805267 0.000242798 L 0.000805267 -73.749978 " transform="matrix(0.749998,0,0,-0.749998,107.987677,323.062682)" />
</g><g id="Man_free_icon_a77mF8x-4"><path style=" stroke:none;fill-rule:nonzero;fill:#fbb34d;fill-opacity:1;" d="M 151.785156 217.796875 L 155.703125 341.65625 L 155.703125 378.375 L 228.375 378.375 L 228.375 341.65625 L 232.21875 217.796875 Z M 151.785156 217.796875 " />
</g><g id="Man_free_icon_a77mF8x-5"><path style="fill:none;stroke-width:15;stroke-linecap:round;stroke-linejoin:round;stroke:rgb(0%,0%,0%);stroke-opacity:1;stroke-miterlimit:10;" d="M 0.00190993 0.0000224122 L 0.00190993 48.96371 " transform="matrix(0.749998,0,0,-0.749998,228.373568,378.375017)" />
</g><g id="Man_free_icon_a77mF8x-6"><path style="fill:none;stroke-width:15;stroke-linecap:round;stroke-linejoin:round;stroke:rgb(0%,0%,0%);stroke-opacity:1;stroke-miterlimit:10;" d="M -0.000421301 0.0017104 L -0.000421301 -48.961978 " transform="matrix(0.749998,0,0,-0.749998,155.699535,341.653627)" />
</g><g id="Man_free_icon_a77mF8x-7"><path style="fill:none;stroke-width:15;stroke-linecap:round;stroke-linejoin:round;stroke:rgb(0%,0%,0%);stroke-opacity:1;stroke-miterlimit:10;" d="M 0.00108366 0.0000224122 L 0.00108366 75.614832 C 0.00108366 140.172316 52.334573 192.511014 116.897266 192.511014 L 227.569472 192.511014 C 292.126957 192.511014 344.465655 140.177525 344.465655 75.614832 L 344.460446 0.0000224122 " transform="matrix(0.749998,0,0,-0.749998,62.827312,378.375017)" />
</g><g id="Man_free_icon_a77mF8x-8"><path style=" stroke:none;fill-rule:nonzero;fill:#433e44;fill-opacity:1;" d="M 278.109375 123.300781 L 278.109375 91.734375 C 278.109375 68.746094 269.15625 47.125 252.886719 30.847656 C 236.621094 14.582031 215 5.625 192 5.625 C 144.515625 5.625 105.878906 44.253906 105.878906 91.734375 L 105.882812 123.300781 Z M 278.109375 123.300781 " />
</g><g id="Man_free_icon_a77mF8x-9"><path style=" stroke:none;fill-rule:nonzero;fill:#353436;fill-opacity:1;" d="M 278.105469 91.734375 L 278.105469 123.300781 L 256.046875 123.300781 L 256.050781 91.734375 C 256.050781 68.746094 247.09375 47.125 230.828125 30.847656 C 217.199219 17.210938 199.800781 8.714844 180.976562 6.324219 C 184.585938 5.867188 188.265625 5.625 192 5.625 C 215.003906 5.625 236.625 14.578125 252.890625 30.847656 C 269.152344 47.125 278.105469 68.746094 278.105469 91.734375 " />
</g><g id="Man_free_icon_a77mF8x-10"><path style="fill:none;stroke-width:15;stroke-linecap:round;stroke-linejoin:round;stroke:rgb(0%,0%,0%);stroke-opacity:1;stroke-miterlimit:10;" d="M -0.00139191 0.0000418837 L -0.00139191 27.088664 C -0.00139191 51.588738 -7.636831 74.922141 -21.777499 94.385741 " transform="matrix(0.749998,0,0,-0.749998,278.110419,112.050813)" />
</g><g id="Man_free_icon_a77mF8x-11"><path style="fill:none;stroke-width:15;stroke-linecap:round;stroke-linejoin:round;stroke:rgb(0%,0%,0%);stroke-opacity:1;stroke-miterlimit:10;" d="M 0.00217693 0.00164908 C -19.617673 14.522526 -43.268786 22.371508 -68.128235 22.371508 C -131.440924 22.371508 -182.951495 -29.133855 -182.951495 -92.441336 L -182.951495 -119.529958 " transform="matrix(0.749998,0,0,-0.749998,243.096024,22.403581)" />
</g><g id="Man_free_icon_a77mF8x-12"><path style=" stroke:none;fill-rule:nonzero;fill:#b95c4f;fill-opacity:1;" d="M 287.117188 134.109375 C 287.117188 146.71875 276.894531 156.941406 264.285156 156.941406 C 251.675781 156.941406 241.453125 146.71875 241.453125 134.109375 C 241.453125 121.5 251.675781 111.277344 264.285156 111.277344 C 276.894531 111.273438 287.117188 121.5 287.117188 134.109375 " />
</g><g id="Man_free_icon_a77mF8x-13"><path style="fill:none;stroke-width:15;stroke-linecap:round;stroke-linejoin:round;stroke:rgb(0%,0%,0%);stroke-opacity:1;stroke-miterlimit:10;" d="M -0.000939348 -0.00150434 C -0.000939348 -16.814055 -13.631188 -30.444304 -30.443739 -30.444304 C -47.256289 -30.444304 -60.886538 -16.814055 -60.886538 -0.00150434 C -60.886538 16.811046 -47.256289 30.441295 -30.443739 30.441295 C -13.631188 30.446503 -0.000939348 16.811046 -0.000939348 -0.00150434 Z M -0.000939348 -0.00150434 " transform="matrix(0.749998,0,0,-0.749998,287.117892,134.108247)" />
</g><g id="Man_free_icon_a77mF8x-14"><path style=" stroke:none;fill-rule:nonzero;fill:#b95c4f;fill-opacity:1;" d="M 142.546875 134.109375 C 142.546875 146.71875 132.324219 156.941406 119.714844 156.941406 C 107.105469 156.941406 96.882812 146.71875 96.882812 134.109375 C 96.882812 121.5 107.105469 111.277344 119.714844 111.277344 C 132.324219 111.273438 142.546875 121.5 142.546875 134.109375 " />
</g><g id="Man_free_icon_a77mF8x-15"><path style="fill:none;stroke-width:15;stroke-linecap:round;stroke-linejoin:round;stroke:rgb(0%,0%,0%);stroke-opacity:1;stroke-miterlimit:10;" d="M 0.0000679616 -0.00150434 C 0.0000679616 -16.814055 -13.630181 -30.444304 -30.442731 -30.444304 C -47.255282 -30.444304 -60.885531 -16.814055 -60.885531 -0.00150434 C -60.885531 16.811046 -47.255282 30.441295 -30.442731 30.441295 C -13.630181 30.446503 0.0000679616 16.811046 0.0000679616 -0.00150434 Z M 0.0000679616 -0.00150434 " transform="matrix(0.749998,0,0,-0.749998,142.546824,134.108247)" />
</g><g id="Man_free_icon_a77mF8x-16"><path style=" stroke:none;fill-rule:nonzero;fill:#c86f5c;fill-opacity:1;" d="M 165.667969 56.496094 C 147.09375 56.496094 130.925781 69.539062 127.375 87.769531 L 127.378906 87.769531 C 126.570312 91.933594 126.160156 96.164062 126.164062 100.40625 L 126.164062 148.78125 C 126.164062 185.304688 155.90625 214.871094 192.492188 214.609375 C 228.796875 214.335938 257.828125 184.261719 257.828125 147.957031 L 257.828125 100.410156 C 257.828125 96.085938 257.410156 91.863281 256.613281 87.773438 C 253.0625 69.535156 236.898438 56.496094 218.324219 56.496094 Z M 165.667969 56.496094 " />
</g><g id="Man_free_icon_a77mF8x-17"><path style="fill:none;stroke-width:15;stroke-linecap:round;stroke-linejoin:round;stroke:rgb(0%,0%,0%);stroke-opacity:1;stroke-miterlimit:10;" d="M 0.00170178 -0.000820098 C -24.763997 -0.000820098 -46.321353 -17.391497 -51.055742 -41.698861 C -52.133871 -47.250961 -52.675539 -52.896811 -52.675539 -58.553078 L -52.675539 -123.042854 C -52.675539 -171.740917 -13.024379 -211.173326 35.757017 -210.81395 C 84.152995 -210.459782 122.871861 -170.339871 122.871861 -121.938684 L 122.871861 -58.54787 C 122.871861 -52.782228 122.314567 -47.146794 121.252064 -41.693653 C 116.522883 -17.391497 94.965527 -0.000820098 70.199828 -0.000820098 Z M 0.00170178 -0.000820098 " transform="matrix(0.749998,0,0,-0.749998,165.674505,56.495479)" />
</g><g id="Man_free_icon_a77mF8x-18"><path style="fill-rule:nonzero;fill:#fb8628;fill-opacity:1;stroke-width:15;stroke-linecap:round;stroke-linejoin:round;stroke:rgb(0%,0%,0%);stroke-opacity:1;stroke-miterlimit:10;" d="M 0.00192525 0.00167405 C 0.00192525 0.00167405 -11.055399 -20.040053 -53.618027 -20.040053 C -96.185862 -20.040053 -107.243187 0.00167405 -107.243187 0.00167405 L -107.243187 27.059047 C -107.243187 32.75698 -102.623381 37.376786 -96.925448 37.376786 L -10.321022 37.376786 C -4.61788 37.376786 0.00192525 32.75698 0.00192525 27.059047 Z M 0.00192525 0.00167405 " transform="matrix(0.749998,0,0,-0.749998,232.217306,235.743443)" />
</g><g id="Man_free_icon_a77mF8x-19"><path style="fill:none;stroke-width:15;stroke-linecap:round;stroke-linejoin:round;stroke:rgb(0%,0%,0%);stroke-opacity:1;stroke-miterlimit:10;" d="M 0.00201043 -0.00121426 L 0.00201043 -51.110742 " transform="matrix(0.749998,0,0,-0.749998,169.935992,207.710027)" />
</g><g id="Man_free_icon_a77mF8x-20"><path style="fill:none;stroke-width:15;stroke-linecap:round;stroke-linejoin:round;stroke:rgb(0%,0%,0%);stroke-opacity:1;stroke-miterlimit:10;" d="M -0.001235 -0.00121426 L -0.001235 -53.933667 " transform="matrix(0.749998,0,0,-0.749998,192.000926,207.710027)" />
</g><g id="Man_free_icon_a77mF8x-21"><path style="fill:none;stroke-width:15;stroke-linecap:round;stroke-linejoin:round;stroke:rgb(0%,0%,0%);stroke-opacity:1;stroke-miterlimit:10;" d="M -0.00248043 -0.00121426 L -0.00248043 -51.110742 " transform="matrix(0.749998,0,0,-0.749998,214.06436,207.710027)" />
</g><g id="Man_free_icon_a77mF8x-22"><path style="fill:none;stroke-width:15;stroke-linecap:round;stroke-linejoin:round;stroke:rgb(0%,0%,0%);stroke-opacity:1;stroke-miterlimit:10;" d="M -0.00211172 0.000345125 C 3.435399 -2.91633 8.247913 -4.739252 13.591679 -4.739252 C 18.935445 -4.739252 23.747959 -2.91633 27.18547 0.000345125 " transform="matrix(0.749998,0,0,-0.749998,181.110959,171.890884)" />
</g><g id="Man_free_icon_a77mF8x-23"><path style="fill:none;stroke-width:15;stroke-linecap:round;stroke-linejoin:round;stroke:rgb(0%,0%,0%);stroke-opacity:1;stroke-miterlimit:10;" d="M -0.00170288 0.00130972 L 0.0816307 0.00130972 " transform="matrix(0.749998,0,0,-0.749998,220.97784,128.489264)" />
</g><g id="Man_free_icon_a77mF8x-24"><path style="fill:none;stroke-width:15;stroke-linecap:round;stroke-linejoin:round;stroke:rgb(0%,0%,0%);stroke-opacity:1;stroke-miterlimit:10;" d="M 0.000899299 0.00130972 L 0.0842329 0.00130972 " transform="matrix(0.749998,0,0,-0.749998,162.960263,128.489264)" />
</g><g id="Man_free_icon_a77mF8x-25"><path style="fill:none;stroke-width:15;stroke-linecap:round;stroke-linejoin:round;stroke:rgb(0%,0%,0%);stroke-opacity:1;stroke-miterlimit:10;" d="M 0.00120701 -0.00108904 L -4.004013 -26.782419 C -4.847766 -32.428269 -1.071713 -37.72516 4.542887 -38.772038 " transform="matrix(0.749998,0,0,-0.749998,187.901438,123.995277)" />
</g><g id="Man_free_icon_a77mF8x-26"><path style=" stroke:none;fill-rule:nonzero;fill:#957560;fill-opacity:1;" d="M 289.75 235.316406 C 264.863281 216.816406 232.21875 217.796875 232.21875 217.796875 L 228.375 341.652344 L 260.289062 310.132812 C 262.65625 307.792969 263.199219 304.167969 261.617188 301.238281 L 249.042969 277.90625 C 262.0625 262.777344 277.925781 253.46875 288.421875 248.492188 C 293.679688 245.996094 294.421875 238.789062 289.75 235.316406 " />
</g><g id="Man_free_icon_a77mF8x-27"><path style="fill:none;stroke-width:15;stroke-linecap:round;stroke-linejoin:round;stroke:rgb(0%,0%,0%);stroke-opacity:1;stroke-miterlimit:10;" d="M 0.00208027 -0.00000458862 L -1.22709 -39.60429 L 41.319912 2.421878 C 44.48138 5.541679 45.20534 10.375026 43.095959 14.281288 L 26.330284 45.390756 C 43.689711 65.562691 64.840816 77.974187 78.835649 84.609623 C 85.851295 87.937758 86.840881 97.547162 80.606488 102.177384 C 47.424097 126.844124 3.897925 125.536829 3.897925 125.536829 L 1.095834 35.250101 " transform="matrix(0.749998,0,0,-0.749998,229.295315,311.949215)" />
</g><g id="Man_free_icon_a77mF8x-28"><path style=" stroke:none;fill-rule:nonzero;fill:#957560;fill-opacity:1;" d="M 151.785156 217.796875 C 151.785156 217.796875 119.210938 216.816406 94.324219 235.316406 C 89.652344 238.789062 90.394531 245.996094 95.652344 248.492188 C 106.144531 253.472656 122.011719 262.78125 135.03125 277.90625 L 122.457031 301.238281 C 120.875 304.167969 121.417969 307.792969 123.785156 310.132812 L 155.699219 341.652344 Z M 151.785156 217.796875 " />
</g><g id="Man_free_icon_a77mF8x-29"><path style="fill:none;stroke-width:15;stroke-linecap:round;stroke-linejoin:round;stroke:rgb(0%,0%,0%);stroke-opacity:1;stroke-miterlimit:10;" d="M -0.000271872 -0.0000392505 C -6.890917 -3.046923 -13.786771 -6.880268 -20.291999 -11.713616 C -26.521184 -16.343838 -25.531598 -25.953242 -18.521161 -29.281377 C -4.531535 -35.922022 16.624778 -48.333517 33.984205 -68.500244 L 17.21853 -99.609712 C 15.109148 -103.515974 15.833109 -108.349321 18.989368 -111.469122 L 61.541579 -153.49529 L 56.317605 11.645829 C 56.317605 11.645829 47.156119 11.916663 34.041497 9.828115 " transform="matrix(0.749998,0,0,-0.749998,109.543173,226.531221)" />
</g></g>
</svg>