<svg xmlns="http://www.w3.org/2000/svg" width="384pt" height="384pt" viewBox="0 0 384 384" version="1.1" class="iconadda">
<g>
<g id="Teammate_free_icon-0"><path style=" stroke:none;fill-rule:nonzero;fill:#d88769;fill-opacity:1;" d="M 178.867188 320.257812 L 205.136719 320.257812 L 205.136719 349.613281 L 178.867188 349.613281 Z M 178.867188 320.257812 " />
</g><g id="Teammate_free_icon-1"><path style=" stroke:none;fill-rule:nonzero;fill:#fe2c5c;fill-opacity:1;" d="M 241.449219 377.832031 L 241.449219 381 C 241.449219 382.65625 240.105469 384 238.449219 384 L 145.550781 384 C 143.894531 384 142.550781 382.65625 142.550781 381 L 142.550781 377.832031 C 142.550781 359.902344 157.179688 345.367188 175.222656 345.367188 L 208.777344 345.367188 C 226.824219 345.367188 241.453125 359.902344 241.453125 377.832031 Z M 241.449219 377.832031 " />
</g><g id="Teammate_free_icon-2"><path style=" stroke:none;fill-rule:nonzero;fill:#e52754;fill-opacity:1;" d="M 208.777344 345.367188 L 185.597656 345.367188 C 203.640625 345.367188 218.269531 359.902344 218.269531 377.832031 L 218.269531 384 L 238.449219 384 C 240.105469 384 241.449219 382.65625 241.449219 381 L 241.449219 377.832031 C 241.449219 359.902344 226.820312 345.367188 208.777344 345.367188 Z M 208.777344 345.367188 " />
</g><g id="Teammate_free_icon-3"><path style=" stroke:none;fill-rule:nonzero;fill:#d88769;fill-opacity:1;" d="M 178.867188 115.898438 L 205.136719 115.898438 L 205.136719 145.25 L 178.867188 145.25 Z M 178.867188 115.898438 " />
</g><g id="Teammate_free_icon-4"><path style=" stroke:none;fill-rule:nonzero;fill:#fe2c5c;fill-opacity:1;" d="M 241.449219 173.46875 L 241.449219 176.636719 C 241.449219 177.433594 241.132812 178.195312 240.570312 178.757812 C 240.007812 179.320312 239.246094 179.636719 238.449219 179.636719 L 145.550781 179.636719 C 143.894531 179.636719 142.550781 178.292969 142.550781 176.636719 L 142.550781 173.46875 C 142.550781 155.539062 157.179688 141.003906 175.222656 141.003906 L 208.777344 141.003906 C 226.824219 141.003906 241.453125 155.539062 241.453125 173.46875 Z M 241.449219 173.46875 " />
</g><g id="Teammate_free_icon-5"><path style=" stroke:none;fill-rule:nonzero;fill:#e52754;fill-opacity:1;" d="M 208.777344 141.007812 L 185.597656 141.007812 C 203.640625 141.007812 218.269531 155.542969 218.269531 173.472656 L 218.269531 179.640625 L 238.449219 179.640625 L 238.449219 179.636719 C 239.246094 179.636719 240.007812 179.320312 240.570312 178.757812 C 241.132812 178.195312 241.449219 177.433594 241.449219 176.636719 L 241.449219 173.46875 C 241.449219 155.539062 226.820312 141.003906 208.777344 141.003906 Z M 208.777344 141.007812 " />
</g><g id="Teammate_free_icon-6"><path style=" stroke:none;fill-rule:nonzero;fill:#d88769;fill-opacity:1;" d="M 51.765625 265.332031 L 78.035156 265.332031 L 78.035156 294.6875 L 51.765625 294.6875 Z M 51.765625 265.332031 " />
</g><g id="Teammate_free_icon-7"><path style=" stroke:none;fill-rule:nonzero;fill:#46d5e6;fill-opacity:1;" d="M 114.351562 322.90625 L 114.351562 326.074219 C 114.351562 327.730469 113.007812 329.074219 111.351562 329.074219 L 18.453125 329.074219 C 16.796875 329.074219 15.453125 327.730469 15.453125 326.074219 L 15.453125 322.90625 C 15.453125 304.976562 30.078125 290.4375 48.125 290.4375 L 81.679688 290.4375 C 99.722656 290.4375 114.351562 304.972656 114.351562 322.90625 Z M 114.351562 322.90625 " />
</g><g id="Teammate_free_icon-8"><path style=" stroke:none;fill-rule:nonzero;fill:#21c0d5;fill-opacity:1;" d="M 81.679688 290.441406 L 58.5 290.441406 C 76.542969 290.441406 91.171875 304.980469 91.171875 322.90625 L 91.171875 329.074219 L 111.347656 329.074219 C 112.144531 329.074219 112.90625 328.757812 113.46875 328.195312 C 114.03125 327.632812 114.347656 326.871094 114.347656 326.074219 L 114.347656 322.90625 C 114.351562 304.972656 99.722656 290.4375 81.679688 290.4375 Z M 81.679688 290.441406 " />
</g><g id="Teammate_free_icon-9"><path style=" stroke:none;fill-rule:nonzero;fill:#d88769;fill-opacity:1;" d="M 305.964844 265.332031 L 332.234375 265.332031 L 332.234375 294.6875 L 305.964844 294.6875 Z M 161.804688 276.988281 C 161.804688 265.894531 154.035156 256.898438 144.449219 256.898438 C 134.867188 256.898438 127.097656 265.890625 127.097656 276.988281 C 127.097656 288.082031 134.867188 297.078125 144.449219 297.078125 C 154.035156 297.078125 161.804688 288.085938 161.804688 276.988281 Z M 256.902344 276.988281 C 256.902344 265.894531 249.132812 256.898438 239.550781 256.898438 C 229.964844 256.898438 222.195312 265.890625 222.195312 276.988281 C 222.195312 288.082031 229.964844 297.078125 239.550781 297.078125 C 249.132812 297.078125 256.902344 288.085938 256.902344 276.988281 Z M 256.902344 276.988281 " />
</g><g id="Teammate_free_icon-10"><path style=" stroke:none;fill-rule:nonzero;fill:#ebac88;fill-opacity:1;" d="M 146.414062 284.101562 L 146.414062 255.820312 C 146.414062 232.949219 164.957031 214.410156 187.828125 214.410156 L 196.171875 214.410156 C 219.042969 214.410156 237.585938 232.953125 237.585938 255.820312 L 237.585938 284.101562 C 237.585938 308.339844 217.941406 327.984375 193.703125 327.984375 L 190.296875 327.984375 C 166.058594 327.984375 146.414062 308.339844 146.414062 284.101562 Z M 146.414062 284.101562 " />
</g><g id="Teammate_free_icon-11"><path style=" stroke:none;fill-rule:nonzero;fill:#e79060;fill-opacity:1;" d="M 196.175781 214.40625 L 187.828125 214.40625 C 185.292969 214.40625 182.816406 214.644531 180.414062 215.078125 C 199.742188 218.574219 214.410156 235.476562 214.410156 255.816406 L 214.410156 284.097656 C 214.410156 304.933594 199.886719 322.363281 180.414062 326.847656 L 180.414062 326.851562 C 183.65625 327.601562 186.972656 327.980469 190.296875 327.984375 L 193.703125 327.984375 C 217.9375 327.984375 237.585938 308.339844 237.585938 284.101562 L 237.585938 255.816406 C 237.585938 232.949219 219.042969 214.40625 196.175781 214.40625 Z M 196.175781 214.40625 " />
</g><g id="Teammate_free_icon-12"><path style=" stroke:none;fill-rule:nonzero;fill:#8c4a37;fill-opacity:1;" d="M 239.980469 267.339844 C 238.710938 270.644531 234.488281 271.90625 231.652344 269.714844 C 224.066406 263.875 221.945312 247.785156 221.644531 245.144531 L 221.640625 245.148438 C 221.613281 244.914062 221.476562 244.703125 221.269531 244.585938 C 210.890625 238.546875 207.132812 232.089844 205.9375 229.398438 C 205.707031 228.871094 205.007812 228.804688 204.65625 229.261719 C 196.109375 240.585938 167.480469 244.210938 162.988281 244.710938 L 162.988281 244.714844 C 162.644531 244.753906 162.371094 245.023438 162.332031 245.367188 C 161.953125 248.578125 159.757812 264.015625 152.355469 269.714844 C 149.519531 271.90625 145.296875 270.644531 144.027344 267.339844 C 140.125 257.203125 142.488281 244.777344 142.488281 244.777344 C 142.488281 244.777344 143.898438 210.882812 174.433594 205.824219 C 206.820312 200.464844 212.449219 211.554688 212.449219 211.554688 C 242.839844 213.015625 241.511719 244.777344 241.511719 244.777344 C 241.511719 244.777344 243.871094 257.203125 239.980469 267.339844 Z M 239.980469 267.339844 " />
</g><g id="Teammate_free_icon-13"><path style=" stroke:none;fill-rule:nonzero;fill:#7f4231;fill-opacity:1;" d="M 241.511719 244.777344 C 241.511719 244.777344 242.839844 213.015625 212.445312 211.550781 C 212.445312 211.550781 207.195312 201.230469 177.710938 205.324219 C 182.402344 206.304688 185.292969 207.859375 187.007812 209.171875 C 188.972656 210.671875 191.320312 211.617188 193.769531 212.015625 C 215.328125 215.550781 218.003906 236.113281 218.304688 242.726562 L 218.300781 242.730469 C 219.273438 243.382812 220.261719 244 221.269531 244.585938 C 221.476562 244.703125 221.617188 244.910156 221.640625 245.144531 C 221.941406 247.789062 224.0625 263.871094 231.648438 269.714844 C 234.484375 271.90625 238.707031 270.644531 239.976562 267.339844 C 243.871094 257.203125 241.507812 244.777344 241.507812 244.777344 Z M 241.511719 244.777344 " />
</g><g id="Teammate_free_icon-14"><path style=" stroke:none;fill-rule:nonzero;fill:#d88769;fill-opacity:1;" d="M 161.804688 72.628906 C 161.804688 61.535156 154.035156 52.539062 144.449219 52.539062 C 134.867188 52.539062 127.097656 61.53125 127.097656 72.628906 C 127.097656 83.722656 134.867188 92.71875 144.449219 92.71875 C 154.035156 92.71875 161.804688 83.726562 161.804688 72.628906 Z M 256.902344 72.628906 C 256.902344 61.535156 249.132812 52.539062 239.550781 52.539062 C 229.964844 52.539062 222.195312 61.53125 222.195312 72.628906 C 222.195312 83.722656 229.964844 92.71875 239.550781 92.71875 C 249.132812 92.71875 256.902344 83.726562 256.902344 72.628906 Z M 256.902344 72.628906 " />
</g><g id="Teammate_free_icon-15"><path style=" stroke:none;fill-rule:nonzero;fill:#ebac88;fill-opacity:1;" d="M 146.414062 79.738281 L 146.414062 51.457031 C 146.414062 28.585938 164.957031 10.046875 187.828125 10.046875 L 196.171875 10.046875 C 219.042969 10.046875 237.585938 28.585938 237.585938 51.457031 L 237.585938 79.742188 C 237.585938 103.976562 217.941406 123.625 193.703125 123.625 L 190.296875 123.625 C 166.058594 123.625 146.414062 103.980469 146.414062 79.742188 Z M 146.414062 79.738281 " />
</g><g id="Teammate_free_icon-16"><path style=" stroke:none;fill-rule:nonzero;fill:#e79060;fill-opacity:1;" d="M 196.175781 10.042969 L 187.828125 10.042969 C 185.292969 10.042969 182.816406 10.28125 180.414062 10.71875 C 199.742188 14.214844 214.410156 31.117188 214.410156 51.457031 L 214.410156 79.742188 C 214.410156 100.574219 199.886719 118.003906 180.414062 122.492188 L 180.414062 122.488281 C 183.65625 123.238281 186.972656 123.617188 190.296875 123.621094 L 193.703125 123.621094 C 217.9375 123.621094 237.585938 103.976562 237.585938 79.738281 L 237.585938 51.457031 C 237.585938 28.585938 219.042969 10.042969 196.175781 10.042969 Z M 196.175781 10.042969 " />
</g><g id="Teammate_free_icon-17"><path style=" stroke:none;fill-rule:nonzero;fill:#8c4a37;fill-opacity:1;" d="M 239.980469 62.976562 C 238.710938 66.28125 234.488281 67.546875 231.652344 65.351562 C 224.066406 59.507812 221.945312 43.425781 221.644531 40.78125 L 221.640625 40.785156 C 221.613281 40.550781 221.476562 40.34375 221.269531 40.226562 C 210.890625 34.183594 207.132812 27.734375 205.9375 25.039062 C 205.707031 24.515625 205.007812 24.445312 204.65625 24.902344 C 196.109375 36.230469 167.480469 39.851562 162.988281 40.355469 C 162.644531 40.390625 162.371094 40.660156 162.332031 41.007812 C 161.953125 44.21875 159.757812 59.65625 152.355469 65.355469 C 149.519531 67.550781 145.296875 66.285156 144.027344 62.980469 C 140.125 52.84375 142.488281 40.417969 142.488281 40.417969 C 142.488281 40.417969 143.898438 6.519531 174.433594 1.464844 C 206.820312 -3.890625 212.449219 7.195312 212.449219 7.195312 C 242.839844 8.65625 241.511719 40.417969 241.511719 40.417969 C 241.511719 40.417969 243.871094 52.84375 239.980469 62.980469 Z M 239.980469 62.976562 " />
</g><g id="Teammate_free_icon-18"><path style=" stroke:none;fill-rule:nonzero;fill:#7f4231;fill-opacity:1;" d="M 241.511719 40.414062 C 241.511719 40.414062 242.839844 8.652344 212.445312 7.191406 C 212.445312 7.191406 207.195312 -3.132812 177.710938 0.960938 C 182.402344 1.941406 185.292969 3.5 187.007812 4.8125 C 188.972656 6.3125 191.320312 7.257812 193.769531 7.65625 C 215.328125 11.1875 218.003906 31.753906 218.304688 38.363281 L 218.300781 38.367188 C 219.273438 39.019531 220.261719 39.636719 221.269531 40.226562 C 221.476562 40.347656 221.617188 40.554688 221.640625 40.785156 C 221.941406 43.425781 224.0625 59.511719 231.648438 65.355469 C 234.484375 67.546875 238.707031 66.285156 239.976562 62.980469 C 243.871094 52.84375 241.507812 40.417969 241.507812 40.417969 Z M 241.511719 40.414062 " />
</g><g id="Teammate_free_icon-19"><path style=" stroke:none;fill-rule:nonzero;fill:#d88769;fill-opacity:1;" d="M 34.707031 222.066406 C 34.707031 210.972656 26.9375 201.976562 17.351562 201.976562 C 7.769531 201.976562 0 210.96875 0 222.066406 C 0 233.160156 7.769531 242.15625 17.351562 242.15625 C 26.9375 242.15625 34.707031 233.164062 34.707031 222.066406 Z M 129.800781 222.066406 C 129.800781 210.972656 122.03125 201.976562 112.449219 201.976562 C 102.863281 201.976562 95.097656 210.96875 95.097656 222.066406 C 95.097656 233.160156 102.863281 242.15625 112.449219 242.15625 C 122.03125 242.15625 129.800781 233.164062 129.800781 222.066406 Z M 129.800781 222.066406 " />
</g><g id="Teammate_free_icon-20"><path style=" stroke:none;fill-rule:nonzero;fill:#ebac88;fill-opacity:1;" d="M 19.320312 229.175781 L 19.320312 200.894531 C 19.320312 178.023438 37.859375 159.484375 60.730469 159.484375 L 69.078125 159.484375 C 91.949219 159.484375 110.488281 178.027344 110.488281 200.894531 L 110.488281 229.179688 C 110.488281 253.414062 90.84375 273.0625 66.609375 273.0625 L 63.203125 273.0625 C 38.964844 273.0625 19.320312 253.414062 19.320312 229.179688 Z M 19.320312 229.175781 " />
</g><g id="Teammate_free_icon-21"><path style=" stroke:none;fill-rule:nonzero;fill:#e79060;fill-opacity:1;" d="M 69.078125 159.480469 L 60.730469 159.480469 C 58.195312 159.480469 55.722656 159.71875 53.316406 160.15625 C 72.644531 163.652344 87.308594 180.554688 87.308594 200.890625 L 87.308594 229.175781 C 87.308594 250.007812 72.785156 267.441406 53.316406 271.925781 C 56.554688 272.675781 59.871094 273.054688 63.199219 273.058594 L 66.605469 273.058594 C 90.839844 273.058594 110.484375 253.410156 110.484375 229.175781 L 110.484375 200.894531 C 110.484375 178.023438 91.941406 159.484375 69.074219 159.484375 Z M 69.078125 159.480469 " />
</g><g id="Teammate_free_icon-22"><path style=" stroke:none;fill-rule:nonzero;fill:#8c4a37;fill-opacity:1;" d="M 112.882812 212.414062 C 111.613281 215.714844 107.390625 216.980469 104.554688 214.785156 C 96.96875 208.941406 94.847656 192.859375 94.546875 190.21875 L 94.542969 190.222656 C 94.515625 189.984375 94.378906 189.777344 94.171875 189.660156 C 83.792969 183.617188 80.03125 177.167969 78.835938 174.472656 C 78.605469 173.949219 77.902344 173.878906 77.554688 174.335938 C 69.007812 185.664062 40.378906 189.285156 35.886719 189.789062 L 35.890625 189.789062 C 35.546875 189.824219 35.273438 190.097656 35.234375 190.441406 C 34.851562 193.652344 32.660156 209.09375 25.257812 214.789062 C 22.421875 216.984375 18.199219 215.71875 16.929688 212.417969 C 13.027344 202.28125 15.390625 189.855469 15.390625 189.855469 C 15.390625 189.855469 16.800781 155.957031 47.335938 150.898438 C 79.722656 145.542969 85.351562 156.628906 85.351562 156.628906 C 115.742188 158.089844 114.414062 189.855469 114.414062 189.855469 C 114.414062 189.855469 116.773438 202.28125 112.882812 212.417969 Z M 112.882812 212.414062 " />
</g><g id="Teammate_free_icon-23"><path style=" stroke:none;fill-rule:nonzero;fill:#7f4231;fill-opacity:1;" d="M 114.414062 189.851562 C 114.414062 189.851562 115.742188 158.085938 85.347656 156.625 C 85.347656 156.625 80.097656 146.300781 50.613281 150.398438 C 55.304688 151.375 58.195312 152.933594 59.910156 154.246094 C 61.875 155.75 64.222656 156.691406 66.671875 157.089844 C 88.226562 160.625 90.90625 181.191406 91.203125 187.800781 L 91.203125 187.804688 C 92.171875 188.453125 93.164062 189.070312 94.171875 189.660156 C 94.378906 189.78125 94.519531 189.988281 94.542969 190.222656 C 94.839844 192.863281 96.960938 208.945312 104.550781 214.789062 C 107.386719 216.984375 111.609375 215.71875 112.878906 212.414062 C 116.773438 202.28125 114.410156 189.855469 114.410156 189.855469 Z M 114.414062 189.851562 " />
</g><g id="Teammate_free_icon-24"><path style=" stroke:none;fill-rule:nonzero;fill:#d88769;fill-opacity:1;" d="M 288.902344 222.066406 C 288.902344 210.972656 281.136719 201.976562 271.550781 201.976562 C 261.96875 201.976562 254.199219 210.96875 254.199219 222.066406 C 254.199219 233.160156 261.96875 242.15625 271.550781 242.15625 C 281.136719 242.15625 288.902344 233.164062 288.902344 222.066406 Z M 384 222.066406 C 384 210.972656 376.230469 201.976562 366.648438 201.976562 C 357.0625 201.976562 349.292969 210.96875 349.292969 222.066406 C 349.292969 233.160156 357.0625 242.15625 366.648438 242.15625 C 376.230469 242.15625 384 233.164062 384 222.066406 Z M 384 222.066406 " />
</g><g id="Teammate_free_icon-25"><path style=" stroke:none;fill-rule:nonzero;fill:#ebac88;fill-opacity:1;" d="M 273.511719 229.175781 L 273.511719 200.894531 C 273.511719 178.023438 292.054688 159.484375 314.925781 159.484375 L 323.269531 159.484375 C 346.140625 159.484375 364.683594 178.027344 364.683594 200.894531 L 364.683594 229.179688 C 364.683594 253.414062 345.035156 273.0625 320.800781 273.0625 L 317.398438 273.0625 C 293.164062 273.0625 273.515625 253.414062 273.515625 229.179688 Z M 273.511719 229.175781 " />
</g><g id="Teammate_free_icon-26"><path style=" stroke:none;fill-rule:nonzero;fill:#e79060;fill-opacity:1;" d="M 323.269531 159.480469 L 314.925781 159.480469 C 312.390625 159.480469 309.914062 159.71875 307.507812 160.15625 C 326.835938 163.652344 341.503906 180.554688 341.503906 200.890625 L 341.503906 229.175781 C 341.503906 250.007812 326.980469 267.441406 307.507812 271.925781 C 310.75 272.675781 314.066406 273.054688 317.394531 273.058594 L 320.800781 273.058594 C 345.035156 273.058594 364.683594 253.410156 364.683594 229.175781 L 364.683594 200.894531 C 364.683594 178.023438 346.140625 159.484375 323.269531 159.484375 Z M 323.269531 159.480469 " />
</g><g id="Teammate_free_icon-27"><path style=" stroke:none;fill-rule:nonzero;fill:#8c4a37;fill-opacity:1;" d="M 367.078125 212.414062 C 365.808594 215.714844 361.585938 216.980469 358.75 214.785156 C 351.164062 208.941406 349.042969 192.859375 348.742188 190.21875 L 348.742188 190.222656 C 348.710938 189.984375 348.574219 189.777344 348.367188 189.660156 C 337.988281 183.617188 334.230469 177.167969 333.035156 174.472656 C 332.804688 173.949219 332.105469 173.878906 331.753906 174.335938 C 323.207031 185.664062 294.578125 189.285156 290.085938 189.789062 L 290.089844 189.789062 C 289.742188 189.824219 289.46875 190.097656 289.429688 190.441406 C 289.046875 193.652344 286.855469 209.09375 279.453125 214.789062 C 276.617188 216.984375 272.390625 215.71875 271.125 212.417969 C 267.222656 202.28125 269.585938 189.855469 269.585938 189.855469 C 269.585938 189.855469 270.996094 155.957031 301.53125 150.898438 C 333.917969 145.542969 339.546875 156.628906 339.546875 156.628906 C 369.941406 158.089844 368.609375 189.855469 368.609375 189.855469 C 368.609375 189.855469 370.972656 202.28125 367.078125 212.417969 Z M 367.078125 212.414062 " />
</g><g id="Teammate_free_icon-28"><path style=" stroke:none;fill-rule:nonzero;fill:#7f4231;fill-opacity:1;" d="M 368.609375 189.851562 C 368.609375 189.851562 369.9375 158.085938 339.542969 156.625 C 339.542969 156.625 334.292969 146.300781 304.808594 150.398438 C 309.503906 151.375 312.390625 152.933594 314.105469 154.246094 C 316.070312 155.75 318.417969 156.691406 320.867188 157.089844 C 342.421875 160.625 345.101562 181.191406 345.402344 187.800781 L 345.402344 187.804688 C 346.371094 188.453125 347.359375 189.070312 348.367188 189.660156 C 348.574219 189.78125 348.714844 189.988281 348.738281 190.222656 C 349.039062 192.863281 351.160156 208.945312 358.746094 214.789062 C 361.582031 216.984375 365.804688 215.71875 367.074219 212.414062 C 370.96875 202.28125 368.605469 189.855469 368.605469 189.855469 Z M 368.609375 189.851562 " />
</g><g id="Teammate_free_icon-29"><path style=" stroke:none;fill-rule:nonzero;fill:#fed65a;fill-opacity:1;" d="M 368.546875 322.90625 L 368.546875 326.074219 C 368.546875 326.871094 368.230469 327.632812 367.667969 328.195312 C 367.105469 328.757812 366.34375 329.074219 365.546875 329.074219 L 272.648438 329.074219 C 270.992188 329.074219 269.648438 327.730469 269.648438 326.074219 L 269.648438 322.90625 C 269.648438 304.976562 284.277344 290.4375 302.320312 290.4375 L 335.875 290.4375 C 353.917969 290.4375 368.542969 304.972656 368.542969 322.90625 Z M 368.546875 322.90625 " />
</g><g id="Teammate_free_icon-30"><path style=" stroke:none;fill-rule:nonzero;fill:#febc54;fill-opacity:1;" d="M 335.878906 290.441406 L 312.699219 290.441406 C 330.742188 290.441406 345.371094 304.980469 345.371094 322.90625 L 345.371094 329.074219 L 365.546875 329.074219 C 366.34375 329.074219 367.105469 328.757812 367.667969 328.195312 C 368.230469 327.632812 368.546875 326.871094 368.546875 326.074219 L 368.546875 322.90625 C 368.546875 304.972656 353.921875 290.4375 335.875 290.4375 Z M 335.878906 290.441406 " />
</g><g id="Teammate_free_icon-31"><path style=" stroke:none;fill-rule:nonzero;fill:#685b79;fill-opacity:1;" d="M 321.34375 343.988281 C 318.234375 343.988281 315.71875 346.507812 315.71875 349.613281 L 315.71875 359.058594 L 267.5625 359.058594 C 264.457031 359.058594 261.9375 361.578125 261.9375 364.683594 C 261.9375 367.792969 264.457031 370.308594 267.5625 370.308594 L 321.34375 370.308594 C 324.449219 370.308594 326.96875 367.789062 326.96875 364.683594 L 326.96875 349.613281 C 326.96875 348.121094 326.375 346.691406 325.320312 345.636719 C 324.265625 344.582031 322.835938 343.988281 321.34375 343.988281 Z M 116.746094 359.058594 L 68.589844 359.058594 L 68.589844 349.613281 C 68.589844 346.503906 66.074219 343.988281 62.964844 343.988281 C 59.859375 343.988281 57.339844 346.507812 57.339844 349.613281 L 57.339844 364.683594 C 57.339844 367.789062 59.859375 370.308594 62.964844 370.308594 L 116.746094 370.308594 C 119.851562 370.308594 122.371094 367.792969 122.371094 364.683594 C 122.371094 361.578125 119.851562 359.058594 116.746094 359.058594 Z M 116.746094 359.058594 " />
</g></g>
</svg>