<svg xmlns="http://www.w3.org/2000/svg" width="384pt" height="384pt" viewBox="0 0 384 384" version="1.1" class="iconadda">
<g>
<g id="Installation_free_icon_T2gO7Dx-0"><path style=" stroke:none;fill-rule:nonzero;fill:#00c17a;fill-opacity:1;" d="M 376.273438 33.417969 L 7.726562 33.417969 C 3.460938 33.417969 0 36.875 0 41.144531 L 0 78.171875 L 1.753906 78.945312 L 382.839844 78.945312 L 384 78.171875 L 384 41.144531 C 384 36.878906 380.542969 33.417969 376.273438 33.417969 Z M 376.273438 33.417969 " />
</g><g id="Installation_free_icon_T2gO7Dx-1"><path style=" stroke:none;fill-rule:nonzero;fill:#08b865;fill-opacity:1;" d="M 46.746094 78.171875 L 46.746094 41.144531 C 46.746094 36.878906 50.207031 33.417969 54.472656 33.417969 L 7.726562 33.417969 C 3.460938 33.417969 0 36.875 0 41.144531 L 0 78.171875 Z M 46.746094 78.171875 " />
</g><g id="Installation_free_icon_T2gO7Dx-2"><path style=" stroke:none;fill-rule:nonzero;fill:#e7ecf3;fill-opacity:1;" d="M 376.273438 350.582031 L 7.726562 350.582031 C 3.460938 350.582031 0 347.125 0 342.855469 L 0 78.171875 L 384 78.171875 L 384 342.855469 C 384 347.121094 380.539062 350.582031 376.273438 350.582031 Z M 376.273438 350.582031 " />
</g><g id="Installation_free_icon_T2gO7Dx-3"><path style=" stroke:none;fill-rule:nonzero;fill:#d8e6ed;fill-opacity:1;" d="M 46.746094 342.855469 L 46.746094 78.171875 L 0 78.171875 L 0 342.855469 C 0 347.121094 3.460938 350.582031 7.726562 350.582031 L 54.472656 350.582031 C 50.207031 350.582031 46.746094 347.121094 46.746094 342.855469 Z M 46.746094 342.855469 " />
</g><g id="Installation_free_icon_T2gO7Dx-4"><path style=" stroke:none;fill-rule:nonzero;fill:#fd6360;fill-opacity:1;" d="M 28.621094 55.398438 C 28.621094 58.507812 26.101562 61.023438 22.996094 61.023438 C 19.886719 61.023438 17.371094 58.507812 17.371094 55.398438 C 17.371094 52.292969 19.886719 49.773438 22.996094 49.773438 C 26.101562 49.773438 28.621094 52.292969 28.621094 55.398438 " />
</g><g id="Installation_free_icon_T2gO7Dx-5"><path style=" stroke:none;fill-rule:nonzero;fill:#fac601;fill-opacity:1;" d="M 48.121094 55.398438 C 48.121094 58.507812 45.601562 61.023438 42.496094 61.023438 C 39.386719 61.023438 36.871094 58.507812 36.871094 55.398438 C 36.871094 52.292969 39.386719 49.773438 42.496094 49.773438 C 45.601562 49.773438 48.121094 52.292969 48.121094 55.398438 " />
</g><g id="Installation_free_icon_T2gO7Dx-6"><path style=" stroke:none;fill-rule:nonzero;fill:#fefeff;fill-opacity:1;" d="M 67.621094 55.398438 C 67.621094 58.507812 65.101562 61.023438 61.996094 61.023438 C 58.886719 61.023438 56.371094 58.507812 56.371094 55.398438 C 56.371094 52.292969 58.886719 49.773438 61.996094 49.773438 C 65.101562 49.773438 67.621094 52.292969 67.621094 55.398438 " />
</g><g id="Installation_free_icon_T2gO7Dx-7"><path style=" stroke:none;fill-rule:nonzero;fill:#fdde20;fill-opacity:1;" d="M 198.453125 107.488281 L 119.578125 107.488281 C 118.832031 107.492188 118.101562 107.65625 117.425781 107.96875 L 116.675781 108.71875 L 116.675781 134.484375 C 116.675781 135.351562 115.972656 136.050781 115.109375 136.054688 L 89.339844 136.054688 L 88.589844 136.804688 C 88.277344 137.476562 88.113281 138.210938 88.113281 138.953125 L 88.113281 172.6875 C 89.039062 172.828125 89.722656 173.617188 89.726562 174.554688 L 89.726562 183.757812 C 89.726562 185.234375 90.679688 186.53125 92.101562 186.992188 C 93.863281 187.5625 95.578125 188.273438 97.226562 189.121094 C 97.714844 189.371094 98.253906 189.503906 98.804688 189.503906 C 99.703125 189.507812 100.5625 189.152344 101.195312 188.515625 L 107.710938 182 C 108.070312 181.640625 108.542969 181.445312 109.050781 181.445312 C 109.554688 181.445312 110.03125 181.640625 110.390625 182 L 119.328125 190.9375 C 119.6875 191.296875 119.882812 191.769531 119.882812 192.277344 C 119.882812 192.785156 119.6875 193.257812 119.328125 193.617188 L 112.8125 200.132812 C 111.765625 201.179688 111.523438 202.773438 112.207031 204.105469 L 112.207031 204.101562 C 113.054688 205.75 113.765625 207.464844 114.335938 209.226562 C 114.796875 210.648438 116.09375 211.601562 117.570312 211.601562 L 126.773438 211.601562 C 127.820312 211.605469 128.667969 212.449219 128.667969 213.496094 L 128.667969 226.136719 L 128.667969 226.132812 C 128.667969 227.179688 127.820312 228.027344 126.773438 228.027344 L 117.570312 228.027344 C 116.09375 228.027344 114.796875 228.980469 114.335938 230.402344 C 113.765625 232.164062 113.054688 233.878906 112.207031 235.527344 C 111.523438 236.859375 111.765625 238.453125 112.8125 239.5 L 119.328125 246.015625 L 119.324219 246.011719 C 120.0625 246.75 120.0625 247.949219 119.324219 248.6875 L 118.839844 249.171875 L 198.453125 249.171875 L 198.453125 249.175781 C 199.734375 249.175781 200.773438 248.136719 200.773438 246.855469 L 200.773438 109.808594 C 200.769531 108.527344 199.734375 107.492188 198.453125 107.488281 Z M 198.453125 107.488281 " />
</g><g id="Installation_free_icon_T2gO7Dx-8"><path style=" stroke:none;fill-rule:nonzero;fill:#fdd403;fill-opacity:1;" d="M 88.589844 136.804688 C 88.277344 137.476562 88.113281 138.210938 88.113281 138.953125 L 88.113281 171.9375 C 89.4375 172.078125 90.476562 173.1875 90.476562 174.550781 L 90.476562 183.753906 C 90.476562 184.910156 91.230469 185.917969 92.332031 186.273438 L 92.332031 186.277344 C 94.132812 186.859375 95.882812 187.589844 97.566406 188.453125 C 98.597656 188.984375 99.847656 188.804688 100.664062 187.984375 L 107.179688 181.46875 L 107.179688 181.472656 C 108.210938 180.441406 109.886719 180.441406 110.917969 181.472656 L 111.792969 182.347656 L 111.792969 138.953125 C 111.792969 138.203125 111.960938 137.472656 112.265625 136.800781 Z M 119.578125 107.488281 C 118.828125 107.488281 118.097656 107.65625 117.425781 107.960938 L 117.425781 131.167969 L 139.585938 109.007812 L 139.585938 109.011719 C 140.558594 108.035156 141.882812 107.488281 143.257812 107.488281 Z M 119.578125 107.488281 " />
</g><g id="Installation_free_icon_T2gO7Dx-9"><path style=" stroke:none;fill-rule:nonzero;fill:#d6aa03;fill-opacity:1;" d="M 117.425781 134.484375 L 117.425781 107.960938 C 116.859375 108.21875 116.347656 108.574219 115.90625 109.011719 L 89.632812 135.285156 L 89.632812 135.28125 C 89.195312 135.722656 88.839844 136.238281 88.585938 136.804688 L 115.109375 136.804688 C 115.722656 136.804688 116.3125 136.558594 116.746094 136.125 C 117.183594 135.691406 117.425781 135.101562 117.425781 134.484375 Z M 117.425781 134.484375 " />
</g><g id="Installation_free_icon_T2gO7Dx-10"><path style=" stroke:none;fill-rule:nonzero;fill:#08a9f2;fill-opacity:1;" d="M 194.164062 207.625 L 233.914062 175.164062 C 234.527344 174.660156 234.886719 173.910156 234.886719 173.117188 C 234.886719 172.324219 234.527344 171.570312 233.914062 171.070312 L 194.164062 138.609375 C 192.4375 137.199219 189.847656 138.429688 189.847656 140.65625 L 189.847656 152.921875 L 189.847656 152.917969 C 189.847656 153.621094 189.570312 154.292969 189.074219 154.789062 C 188.578125 155.285156 187.90625 155.5625 187.207031 155.5625 L 137.8125 155.5625 C 136.351562 155.5625 135.167969 156.746094 135.167969 158.207031 L 135.167969 188.027344 C 135.167969 189.484375 136.351562 190.667969 137.8125 190.667969 L 187.207031 190.667969 C 187.90625 190.667969 188.578125 190.945312 189.074219 191.441406 C 189.570312 191.9375 189.847656 192.609375 189.847656 193.3125 L 189.847656 205.578125 C 189.847656 207.808594 192.4375 209.035156 194.164062 207.625 Z M 194.164062 207.625 " />
</g><g id="Installation_free_icon_T2gO7Dx-11"><path style=" stroke:none;fill-rule:nonzero;fill:#028fc0;fill-opacity:1;" d="M 158.777344 188.027344 L 158.777344 158.207031 C 158.777344 156.746094 159.960938 155.5625 161.417969 155.5625 L 137.8125 155.5625 C 136.351562 155.5625 135.167969 156.746094 135.167969 158.207031 L 135.167969 188.027344 C 135.167969 189.484375 136.351562 190.667969 137.8125 190.667969 L 161.417969 190.667969 C 159.960938 190.667969 158.777344 189.484375 158.777344 188.027344 Z M 158.777344 188.027344 " />
</g><g id="Installation_free_icon_T2gO7Dx-12"><path style=" stroke:none;fill-rule:nonzero;fill:#8d9ca9;fill-opacity:1;" d="M 298.386719 128.28125 L 255.355469 128.28125 C 252.25 128.28125 249.730469 125.761719 249.730469 122.65625 C 249.730469 119.550781 252.25 117.03125 255.355469 117.03125 L 298.386719 117.03125 C 301.492188 117.03125 304.011719 119.550781 304.011719 122.65625 C 304.011719 125.761719 301.492188 128.28125 298.386719 128.28125 Z M 346.527344 153.859375 L 255.355469 153.859375 C 252.25 153.859375 249.730469 151.339844 249.730469 148.234375 C 249.730469 145.128906 252.25 142.609375 255.355469 142.609375 L 346.527344 142.609375 C 349.632812 142.609375 352.152344 145.125 352.152344 148.234375 C 352.152344 151.339844 349.632812 153.859375 346.527344 153.859375 Z M 346.527344 179.4375 L 255.355469 179.4375 C 252.25 179.4375 249.730469 176.917969 249.730469 173.8125 C 249.730469 170.707031 252.25 168.1875 255.355469 168.1875 L 346.527344 168.1875 C 349.632812 168.1875 352.152344 170.703125 352.152344 173.8125 C 352.152344 176.917969 349.632812 179.4375 346.527344 179.4375 Z M 346.527344 205.015625 L 255.355469 205.015625 C 252.25 205.015625 249.730469 202.496094 249.730469 199.390625 C 249.730469 196.285156 252.25 193.765625 255.355469 193.765625 L 346.527344 193.765625 C 349.632812 193.765625 352.152344 196.28125 352.152344 199.390625 C 352.152344 202.496094 349.632812 205.015625 346.527344 205.015625 Z M 346.527344 230.589844 L 255.355469 230.589844 C 252.25 230.589844 249.730469 228.070312 249.730469 224.964844 C 249.730469 221.859375 252.25 219.339844 255.355469 219.339844 L 346.527344 219.339844 C 349.632812 219.339844 352.152344 221.859375 352.152344 224.964844 C 352.152344 228.074219 349.632812 230.589844 346.527344 230.589844 Z M 346.527344 256.167969 L 255.355469 256.167969 C 252.25 256.167969 249.730469 253.648438 249.730469 250.542969 C 249.730469 247.4375 252.25 244.917969 255.355469 244.917969 L 346.527344 244.917969 C 349.632812 244.917969 352.152344 247.4375 352.152344 250.542969 C 352.152344 253.652344 349.632812 256.167969 346.527344 256.167969 Z M 346.527344 256.167969 " />
</g><g id="Installation_free_icon_T2gO7Dx-13"><path style=" stroke:none;fill-rule:nonzero;fill:#45cc8e;fill-opacity:1;" d="M 332.621094 323.347656 L 51.378906 323.347656 C 41.5625 323.347656 33.609375 315.390625 33.609375 305.578125 C 33.609375 295.761719 41.566406 287.808594 51.378906 287.808594 L 332.617188 287.808594 C 342.433594 287.808594 350.386719 295.765625 350.386719 305.578125 C 350.386719 315.394531 342.429688 323.347656 332.617188 323.347656 Z M 332.621094 323.347656 " />
</g><g id="Installation_free_icon_T2gO7Dx-14"><path style=" stroke:none;fill-rule:nonzero;fill:#00c17a;fill-opacity:1;" d="M 84.605469 305.578125 C 84.605469 295.761719 92.5625 287.808594 102.375 287.808594 L 51.378906 287.808594 C 41.5625 287.808594 33.609375 295.765625 33.609375 305.578125 C 33.609375 315.394531 41.566406 323.347656 51.378906 323.347656 L 102.371094 323.347656 C 92.554688 323.347656 84.601562 315.390625 84.601562 305.578125 Z M 84.605469 305.578125 " />
</g><g id="Installation_free_icon_T2gO7Dx-15"><path style=" stroke:none;fill-rule:nonzero;fill:#b5c3c0;fill-opacity:1;" d="M 332.621094 328.972656 L 51.378906 328.972656 C 38.480469 328.972656 27.984375 318.476562 27.984375 305.578125 C 27.984375 292.679688 38.480469 282.183594 51.378906 282.183594 L 332.617188 282.183594 C 345.515625 282.183594 356.011719 292.679688 356.011719 305.578125 C 356.011719 318.476562 345.515625 328.972656 332.617188 328.972656 Z M 51.378906 293.429688 C 44.683594 293.429688 39.234375 298.878906 39.234375 305.574219 C 39.234375 312.269531 44.683594 317.71875 51.378906 317.71875 L 332.617188 317.71875 C 339.3125 317.71875 344.761719 312.269531 344.761719 305.574219 C 344.761719 298.878906 339.3125 293.429688 332.617188 293.429688 Z M 51.378906 293.429688 " />
</g><g id="Installation_free_icon_T2gO7Dx-16"><path style=" stroke:none;fill-rule:nonzero;fill:#09a655;fill-opacity:1;" d="M 254.582031 311.203125 L 52.152344 311.203125 C 49.046875 311.203125 46.527344 308.683594 46.527344 305.578125 C 46.527344 302.472656 49.046875 299.953125 52.152344 299.953125 L 254.582031 299.953125 C 257.6875 299.953125 260.207031 302.472656 260.207031 305.578125 C 260.207031 308.683594 257.6875 311.203125 254.582031 311.203125 Z M 254.582031 311.203125 " />
</g><g id="Installation_free_icon_T2gO7Dx-17"><path style=" stroke:none;fill-rule:nonzero;fill:#8d9ca9;fill-opacity:1;" d="M 129.417969 226.132812 L 129.417969 213.496094 C 129.417969 212.792969 129.136719 212.121094 128.640625 211.625 C 128.144531 211.128906 127.472656 210.851562 126.773438 210.851562 L 117.570312 210.851562 C 116.414062 210.851562 115.40625 210.097656 115.050781 208.996094 L 115.046875 208.996094 C 114.464844 207.195312 113.738281 205.445312 112.871094 203.761719 C 112.339844 202.730469 112.519531 201.480469 113.339844 200.664062 L 119.855469 194.148438 C 120.886719 193.113281 120.886719 191.441406 119.855469 190.410156 L 110.917969 181.472656 C 109.882812 180.441406 108.210938 180.441406 107.179688 181.472656 L 100.664062 187.988281 C 99.84375 188.808594 98.59375 188.984375 97.566406 188.457031 L 97.566406 188.453125 C 95.882812 187.589844 94.132812 186.859375 92.332031 186.277344 C 91.234375 185.921875 90.476562 184.914062 90.476562 183.757812 L 90.476562 174.554688 C 90.476562 173.851562 90.195312 173.179688 89.699219 172.683594 C 89.203125 172.191406 88.53125 171.910156 87.832031 171.910156 L 75.191406 171.910156 C 73.730469 171.910156 72.550781 173.09375 72.550781 174.554688 L 72.550781 183.757812 C 72.550781 184.914062 71.796875 185.921875 70.695312 186.277344 C 68.890625 186.859375 67.140625 187.589844 65.457031 188.453125 C 64.425781 188.984375 63.175781 188.804688 62.359375 187.984375 L 55.84375 181.46875 L 55.84375 181.472656 C 54.8125 180.441406 53.140625 180.441406 52.105469 181.472656 L 43.167969 190.410156 C 42.136719 191.441406 42.136719 193.113281 43.167969 194.148438 L 49.683594 200.664062 C 50.503906 201.484375 50.679688 202.734375 50.152344 203.761719 C 49.285156 205.445312 48.558594 207.195312 47.976562 208.996094 C 47.621094 210.09375 46.613281 210.851562 45.457031 210.851562 L 36.253906 210.851562 C 34.792969 210.851562 33.609375 212.035156 33.609375 213.496094 L 33.609375 226.136719 L 33.609375 226.132812 C 33.609375 227.59375 34.792969 228.777344 36.253906 228.777344 L 45.457031 228.777344 C 46.613281 228.777344 47.621094 229.53125 47.976562 230.632812 C 48.558594 232.433594 49.289062 234.1875 50.152344 235.871094 C 50.683594 236.902344 50.503906 238.152344 49.683594 238.96875 L 43.167969 245.480469 L 43.171875 245.480469 C 42.140625 246.515625 42.140625 248.1875 43.171875 249.21875 L 52.109375 258.15625 C 53.140625 259.1875 54.8125 259.1875 55.847656 258.15625 L 62.363281 251.640625 C 63.183594 250.820312 64.433594 250.644531 65.460938 251.171875 L 65.457031 251.175781 C 67.140625 252.039062 68.894531 252.769531 70.695312 253.351562 C 71.792969 253.707031 72.550781 254.714844 72.550781 255.871094 L 72.550781 265.078125 L 72.550781 265.074219 C 72.550781 266.535156 73.734375 267.71875 75.195312 267.71875 L 87.835938 267.71875 L 87.832031 267.71875 C 88.535156 267.71875 89.207031 267.441406 89.703125 266.945312 C 90.199219 266.449219 90.476562 265.777344 90.476562 265.074219 L 90.476562 255.871094 C 90.476562 254.714844 91.230469 253.707031 92.332031 253.351562 C 94.132812 252.769531 95.882812 252.039062 97.566406 251.175781 C 98.597656 250.644531 99.847656 250.824219 100.664062 251.644531 L 107.179688 258.160156 L 107.179688 258.15625 C 108.214844 259.1875 109.886719 259.1875 110.917969 258.15625 L 119.855469 249.21875 C 120.886719 248.1875 120.886719 246.515625 119.855469 245.480469 L 113.339844 238.96875 C 112.519531 238.148438 112.34375 236.898438 112.871094 235.871094 L 112.875 235.871094 C 113.738281 234.1875 114.46875 232.433594 115.050781 230.632812 C 115.40625 229.535156 116.414062 228.777344 117.570312 228.777344 L 126.773438 228.777344 C 127.476562 228.777344 128.148438 228.5 128.644531 228.003906 C 129.136719 227.507812 129.417969 226.835938 129.417969 226.132812 Z M 129.417969 226.132812 " />
</g><g id="Installation_free_icon_T2gO7Dx-18"><path style=" stroke:none;fill-rule:nonzero;fill:#798c98;fill-opacity:1;" d="M 61.425781 219.816406 C 61.425781 200.757812 73.535156 184.527344 90.476562 178.398438 L 90.476562 174.554688 C 90.476562 173.855469 90.195312 173.183594 89.703125 172.6875 C 89.207031 172.191406 88.535156 171.910156 87.832031 171.910156 L 75.191406 171.910156 C 73.734375 171.910156 72.550781 173.09375 72.550781 174.554688 L 72.550781 183.757812 C 72.550781 184.914062 71.796875 185.921875 70.695312 186.277344 L 70.695312 186.28125 C 68.894531 186.863281 67.140625 187.589844 65.457031 188.457031 C 64.425781 188.988281 63.175781 188.808594 62.359375 187.988281 L 55.84375 181.472656 C 54.8125 180.441406 53.140625 180.441406 52.109375 181.472656 L 43.171875 190.410156 C 42.136719 191.445312 42.136719 193.117188 43.171875 194.148438 L 49.6875 200.660156 C 50.507812 201.480469 50.683594 202.730469 50.15625 203.757812 L 50.152344 203.761719 C 49.285156 205.445312 48.558594 207.195312 47.976562 208.996094 C 47.621094 210.097656 46.613281 210.851562 45.457031 210.851562 L 36.253906 210.851562 C 34.792969 210.851562 33.609375 212.035156 33.609375 213.496094 L 33.609375 226.136719 C 33.609375 226.835938 33.886719 227.507812 34.382812 228.003906 C 34.878906 228.5 35.550781 228.777344 36.253906 228.777344 L 45.457031 228.777344 C 46.613281 228.777344 47.621094 229.53125 47.976562 230.632812 C 48.558594 232.433594 49.289062 234.1875 50.152344 235.871094 C 50.683594 236.902344 50.503906 238.152344 49.683594 238.96875 L 43.167969 245.480469 L 43.171875 245.480469 C 42.140625 246.515625 42.140625 248.1875 43.171875 249.21875 L 52.109375 258.15625 C 53.140625 259.1875 54.8125 259.1875 55.847656 258.15625 L 62.363281 251.640625 C 63.183594 250.820312 64.433594 250.644531 65.460938 251.171875 L 65.457031 251.175781 C 67.140625 252.039062 68.894531 252.769531 70.695312 253.351562 C 71.792969 253.707031 72.550781 254.714844 72.550781 255.871094 L 72.550781 265.078125 L 72.550781 265.074219 C 72.550781 265.777344 72.828125 266.449219 73.324219 266.945312 C 73.820312 267.441406 74.492188 267.71875 75.195312 267.71875 L 87.835938 267.71875 L 87.832031 267.71875 C 88.535156 267.71875 89.207031 267.441406 89.703125 266.945312 C 90.199219 266.449219 90.476562 265.777344 90.476562 265.074219 L 90.476562 261.234375 C 73.535156 255.101562 61.425781 238.875 61.425781 219.816406 Z M 61.425781 219.816406 " />
</g><g id="Installation_free_icon_T2gO7Dx-19"><path style=" stroke:none;fill-rule:nonzero;fill:#596b77;fill-opacity:1;" d="M 95.472656 219.816406 C 95.472656 227.523438 89.222656 233.773438 81.511719 233.773438 C 73.804688 233.773438 67.554688 227.523438 67.554688 219.816406 C 67.554688 212.105469 73.804688 205.855469 81.511719 205.855469 C 89.222656 205.855469 95.472656 212.105469 95.472656 219.816406 " />
</g><g id="Installation_free_icon_T2gO7Dx-20"><path style=" stroke:none;fill-rule:nonzero;fill:#455a62;fill-opacity:1;" d="M 79.195312 219.816406 C 79.195312 214.1875 82.535156 209.347656 87.332031 207.140625 C 85.507812 206.296875 83.523438 205.859375 81.515625 205.855469 C 73.804688 205.855469 67.558594 212.105469 67.558594 219.8125 C 67.558594 227.523438 73.808594 233.769531 81.515625 233.769531 C 83.59375 233.769531 85.5625 233.300781 87.335938 232.484375 C 82.535156 230.277344 79.199219 225.4375 79.199219 219.808594 Z M 79.195312 219.816406 " />
</g><g id="Installation_free_icon_T2gO7Dx-21"><path style=" stroke:none;fill-rule:nonzero;fill:#b5c3c0;fill-opacity:1;" d="M 81.511719 239.398438 C 70.714844 239.398438 61.929688 230.613281 61.929688 219.816406 C 61.929688 209.019531 70.714844 200.234375 81.511719 200.234375 C 92.308594 200.234375 101.09375 209.019531 101.09375 219.816406 C 101.09375 230.613281 92.308594 239.398438 81.511719 239.398438 Z M 81.511719 211.484375 C 76.917969 211.484375 73.179688 215.222656 73.179688 219.816406 C 73.179688 224.410156 76.917969 228.148438 81.511719 228.148438 C 86.105469 228.148438 89.84375 224.410156 89.84375 219.816406 C 89.84375 215.222656 86.105469 211.484375 81.511719 211.484375 Z M 81.511719 211.484375 " />
</g></g>
</svg>