<svg xmlns="http://www.w3.org/2000/svg" width="384pt" height="384pt" viewBox="0 0 384 384" version="1.1" class="iconadda">
<g>
<g id="Quiz_free_icon_25_uLQGWT0-0"><path style=" stroke:none;fill-rule:nonzero;fill:#fef4f5;fill-opacity:1;" d="M 131.25 161.25 L 108.75 146.25 L 86.25 161.25 C 53.785156 179.800781 33.75 214.324219 33.75 251.714844 L 33.75 285 L 183.75 285 L 183.75 251.714844 C 183.75 214.324219 163.714844 179.800781 131.25 161.25 Z M 131.25 161.25 " />
</g><g id="Quiz_free_icon_25_uLQGWT0-1"><path style=" stroke:none;fill-rule:nonzero;fill:#dedef5;fill-opacity:1;" d="M 183.75 251.714844 C 183.75 214.324219 163.714844 179.800781 131.25 161.25 L 108.75 146.25 L 108.75 285 L 183.75 285 Z M 183.75 251.714844 " />
</g><g id="Quiz_free_icon_25_uLQGWT0-2"><path style=" stroke:none;fill-rule:nonzero;fill:#fef4f5;fill-opacity:1;" d="M 131.25 161.25 L 86.25 161.25 C 53.785156 142.699219 33.75 108.175781 33.75 70.785156 L 33.75 37.5 L 183.75 37.5 L 183.75 70.785156 C 183.75 108.175781 163.714844 142.699219 131.25 161.25 Z M 131.25 161.25 " />
</g><g id="Quiz_free_icon_25_uLQGWT0-3"><path style=" stroke:none;fill-rule:nonzero;fill:#dedef5;fill-opacity:1;" d="M 108.75 37.5 L 108.75 161.25 L 131.25 161.25 C 163.714844 142.699219 183.75 108.175781 183.75 70.785156 L 183.75 37.5 Z M 108.75 37.5 " />
</g><g id="Quiz_free_icon_25_uLQGWT0-4"><path style=" stroke:none;fill-rule:nonzero;fill:#fef262;fill-opacity:1;" d="M 184.742188 259.152344 C 167.503906 233.292969 141.8125 213.375 112.46875 203.132812 L 112.46875 203.128906 C 110.0625 202.289062 107.4375 202.289062 105.03125 203.128906 C 75.6875 213.371094 49.996094 233.292969 32.757812 259.148438 L 32.664062 259.289062 L 32.664062 259.292969 C 30.320312 262.808594 29.070312 266.9375 29.070312 271.164062 L 29.070312 285 L 188.339844 285 L 188.339844 271.027344 L 188.335938 271.027344 C 188.335938 266.800781 187.085938 262.667969 184.742188 259.152344 Z M 184.742188 259.152344 " />
</g><g id="Quiz_free_icon_25_uLQGWT0-5"><path style=" stroke:none;fill-rule:nonzero;fill:#fecd01;fill-opacity:1;" d="M 188.335938 271.027344 C 188.335938 266.800781 187.085938 262.667969 184.742188 259.152344 C 167.503906 233.292969 141.8125 213.375 112.46875 203.132812 L 112.46875 203.128906 C 111.273438 202.714844 110.015625 202.5 108.75 202.5 L 108.75 285 L 188.335938 285 Z M 188.335938 271.027344 " />
</g><g id="Quiz_free_icon_25_uLQGWT0-6"><path style=" stroke:none;fill-rule:nonzero;fill:#d2cff4;fill-opacity:1;" d="M 195 285 L 172.5 285 L 172.5 251.71875 C 172.5 218.449219 154.554688 187.527344 125.667969 171.019531 C 122.164062 169.015625 120 165.289062 120 161.25 C 120 157.214844 122.164062 153.484375 125.667969 151.484375 C 154.554688 134.976562 172.5 104.054688 172.5 70.78125 L 172.5 37.5 L 195 37.5 L 195 70.78125 C 195 106.242188 178.589844 139.554688 151.261719 161.25 C 178.589844 182.945312 195 216.257812 195 251.71875 Z M 195 285 " />
</g><g id="Quiz_free_icon_25_uLQGWT0-7"><path style=" stroke:none;fill-rule:nonzero;fill:#dedef5;fill-opacity:1;" d="M 45 285 L 22.5 285 L 22.5 251.71875 C 22.5 216.257812 38.910156 182.945312 66.238281 161.25 C 38.910156 139.554688 22.5 106.242188 22.5 70.78125 L 22.5 37.5 L 45 37.5 L 45 70.78125 C 45 104.050781 62.945312 134.972656 91.832031 151.480469 C 95.335938 153.484375 97.5 157.210938 97.5 161.25 C 97.5 165.285156 95.335938 169.015625 91.832031 171.015625 C 62.945312 187.523438 45 218.445312 45 251.71875 Z M 45 285 " />
</g><g id="Quiz_free_icon_25_uLQGWT0-8"><path style=" stroke:none;fill-rule:nonzero;fill:#0a617e;fill-opacity:1;" d="M 183.75 52.5 L 33.75 52.5 C 15.140625 52.5 0 37.359375 0 18.75 L 0 11.25 C 0 5.035156 5.035156 0 11.25 0 L 206.25 0 C 212.464844 0 217.5 5.035156 217.5 11.25 L 217.5 18.75 C 217.5 37.359375 202.359375 52.5 183.75 52.5 Z M 183.75 52.5 " />
</g><g id="Quiz_free_icon_25_uLQGWT0-9"><path style=" stroke:none;fill-rule:nonzero;fill:#004550;fill-opacity:1;" d="M 206.25 0 L 108.75 0 L 108.75 52.5 L 183.75 52.5 C 202.359375 52.5 217.5 37.359375 217.5 18.75 L 217.5 11.25 C 217.5 5.035156 212.464844 0 206.25 0 Z M 206.25 0 " />
</g><g id="Quiz_free_icon_25_uLQGWT0-10"><path style=" stroke:none;fill-rule:nonzero;fill:#0a617e;fill-opacity:1;" d="M 217.5 303.75 L 217.5 311.25 C 217.5 317.464844 212.464844 322.5 206.25 322.5 L 11.25 322.5 C 5.035156 322.5 0 317.464844 0 311.25 L 0 303.75 C 0 285.140625 15.140625 270 33.75 270 L 183.75 270 C 202.359375 270 217.5 285.140625 217.5 303.75 Z M 217.5 303.75 " />
</g><g id="Quiz_free_icon_25_uLQGWT0-11"><path style=" stroke:none;fill-rule:nonzero;fill:#004550;fill-opacity:1;" d="M 183.75 270 L 108.75 270 L 108.75 322.5 L 206.25 322.5 C 212.464844 322.5 217.5 317.464844 217.5 311.25 L 217.5 303.75 C 217.5 285.140625 202.359375 270 183.75 270 Z M 183.75 270 " />
</g><g id="Quiz_free_icon_25_uLQGWT0-12"><path style=" stroke:none;fill-rule:nonzero;fill:#fef262;fill-opacity:1;" d="M 384 275.25 C 384 335.3125 335.3125 384 275.25 384 C 215.1875 384 166.5 335.3125 166.5 275.25 C 166.5 215.1875 215.1875 166.5 275.25 166.5 C 335.3125 166.5 384 215.1875 384 275.25 " />
</g><g id="Quiz_free_icon_25_uLQGWT0-13"><path style=" stroke:none;fill-rule:nonzero;fill:#fecd01;fill-opacity:1;" d="M 275.25 166.5 L 275.25 384 C 335.3125 384 384 335.3125 384 275.25 C 384 215.1875 335.3125 166.5 275.25 166.5 Z M 275.25 166.5 " />
</g><g id="Quiz_free_icon_25_uLQGWT0-14"><path style=" stroke:none;fill-rule:nonzero;fill:#0a617e;fill-opacity:1;" d="M 275.25 211.5 C 256.640625 211.5 241.5 226.640625 241.5 245.25 C 241.5 251.464844 246.535156 256.5 252.75 256.5 C 258.964844 256.5 264 251.464844 264 245.25 C 264 239.046875 269.046875 234 275.25 234 C 281.453125 234 286.5 239.046875 286.5 245.25 C 286.5 249.230469 284.363281 252.953125 280.921875 254.972656 C 270.328125 261.179688 264 271.6875 264 283.082031 L 264 290.25 C 264 296.464844 269.035156 301.5 275.25 301.5 C 281.464844 301.5 286.5 296.464844 286.5 290.25 L 286.5 283.082031 C 286.5 278.292969 290.550781 275.40625 292.292969 274.386719 C 302.597656 268.347656 309 257.183594 309 245.25 C 309 226.640625 293.859375 211.5 275.25 211.5 Z M 275.25 211.5 " />
</g><g id="Quiz_free_icon_25_uLQGWT0-15"><path style=" stroke:none;fill-rule:nonzero;fill:#004550;fill-opacity:1;" d="M 286.5 245.25 C 286.5 249.230469 284.363281 252.953125 280.921875 254.972656 C 278.90625 256.148438 277.007812 257.515625 275.25 259.054688 L 275.25 301.5 C 281.464844 301.5 286.5 296.464844 286.5 290.25 L 286.5 283.082031 C 286.5 278.292969 290.550781 275.40625 292.292969 274.386719 C 302.597656 268.347656 309 257.183594 309 245.25 C 309 226.640625 293.859375 211.5 275.25 211.5 L 275.25 234 C 281.453125 234 286.5 239.046875 286.5 245.25 Z M 286.5 245.25 " />
</g><g id="Quiz_free_icon_25_uLQGWT0-16"><path style=" stroke:none;fill-rule:nonzero;fill:#0a617e;fill-opacity:1;" d="M 286.5 335.25 C 286.5 341.464844 281.464844 346.5 275.25 346.5 C 269.035156 346.5 264 341.464844 264 335.25 C 264 329.035156 269.035156 324 275.25 324 C 281.464844 324 286.5 329.035156 286.5 335.25 " />
</g><g id="Quiz_free_icon_25_uLQGWT0-17"><path style=" stroke:none;fill-rule:nonzero;fill:#004550;fill-opacity:1;" d="M 286.5 335.25 C 286.5 329.035156 281.464844 324 275.25 324 L 275.25 346.5 C 281.464844 346.5 286.5 341.464844 286.5 335.25 Z M 286.5 335.25 " />
</g></g>
</svg>