<svg xmlns="http://www.w3.org/2000/svg" width="384pt" height="384pt" viewBox="0 0 384 384" version="1.1" class="iconadda">
<g>
<g id="Blog_free_icon_kjmBRs0-0"><path style=" stroke:none;fill-rule:nonzero;fill:#f9f5fa;fill-opacity:1;" d="M 287.21875 49.953125 L 0 49.953125 L 0 368.390625 C 0 377.011719 6.988281 384 15.609375 384 L 271.609375 384 C 280.230469 384 287.21875 377.011719 287.21875 368.390625 Z M 287.21875 49.953125 " />
</g><g id="Blog_free_icon_kjmBRs0-1"><path style=" stroke:none;fill-rule:nonzero;fill:#ddd9ed;fill-opacity:1;" d="M 262.246094 49.953125 L 262.246094 368.390625 C 262.246094 377.011719 255.257812 384 246.636719 384 L 271.613281 384 C 280.234375 384 287.222656 377.011719 287.222656 368.390625 L 287.21875 49.953125 Z M 262.246094 49.953125 " />
</g><g id="Blog_free_icon_kjmBRs0-2"><path style=" stroke:none;fill-rule:nonzero;fill:#caafeb;fill-opacity:1;" d="M 271.609375 0 L 15.609375 0 C 6.988281 0 0 6.988281 0 15.609375 L 0 49.949219 L 287.21875 49.949219 L 287.21875 15.609375 C 287.21875 6.988281 280.230469 0 271.609375 0 Z M 271.609375 0 " />
</g><g id="Blog_free_icon_kjmBRs0-3"><path style=" stroke:none;fill-rule:nonzero;fill:#bb95e3;fill-opacity:1;" d="M 271.609375 0 L 246.632812 0 C 255.253906 0 262.242188 6.988281 262.242188 15.609375 L 262.242188 49.949219 L 287.21875 49.949219 L 287.21875 15.609375 C 287.21875 6.988281 280.230469 0 271.609375 0 Z M 271.609375 0 " />
</g><g id="Blog_free_icon_kjmBRs0-4"><path style=" stroke:none;fill-rule:nonzero;fill:#b2e59f;fill-opacity:1;" d="M 23.851562 177.25 L 23.851562 88.117188 C 23.851562 83.851562 27.3125 80.390625 31.578125 80.390625 L 255.644531 80.390625 C 259.910156 80.390625 263.371094 83.851562 263.371094 88.117188 L 263.371094 177.25 C 263.371094 181.515625 259.910156 184.976562 255.644531 184.976562 L 31.578125 184.976562 C 27.3125 184.976562 23.851562 181.515625 23.851562 177.25 Z M 23.851562 177.25 " />
</g><g id="Blog_free_icon_kjmBRs0-5"><path style=" stroke:none;fill-rule:nonzero;fill:#b2e59f;fill-opacity:1;" d="M 268.488281 24.976562 C 268.488281 28.425781 265.691406 31.21875 262.246094 31.21875 C 258.796875 31.21875 256 28.425781 256 24.976562 C 256 21.527344 258.796875 18.730469 262.246094 18.730469 C 265.691406 18.730469 268.488281 21.527344 268.488281 24.976562 " />
</g><g id="Blog_free_icon_kjmBRs0-6"><path style=" stroke:none;fill-rule:nonzero;fill:#fedf7e;fill-opacity:1;" d="M 243.511719 24.976562 C 243.511719 28.425781 240.71875 31.21875 237.269531 31.21875 C 233.820312 31.21875 231.023438 28.425781 231.023438 24.976562 C 231.023438 21.527344 233.820312 18.730469 237.269531 18.730469 C 240.71875 18.730469 243.511719 21.527344 243.511719 24.976562 " />
</g><g id="Blog_free_icon_kjmBRs0-7"><path style=" stroke:none;fill-rule:nonzero;fill:#dd626f;fill-opacity:1;" d="M 218.535156 24.976562 C 218.535156 28.425781 215.742188 31.21875 212.292969 31.21875 C 208.84375 31.21875 206.050781 28.425781 206.050781 24.976562 C 206.050781 21.527344 208.84375 18.730469 212.292969 18.730469 C 215.742188 18.730469 218.535156 21.527344 218.535156 24.976562 " />
</g><g id="Blog_free_icon_kjmBRs0-8"><path style=" stroke:none;fill-rule:nonzero;fill:#b1e4fa;fill-opacity:1;" d="M 126.441406 218.867188 L 73.367188 218.867188 C 70.164062 218.867188 67.570312 216.273438 67.570312 213.074219 C 67.570312 209.875 70.164062 207.277344 73.367188 207.277344 L 126.441406 207.277344 C 129.640625 207.277344 132.234375 209.875 132.234375 213.074219 C 132.234375 216.273438 129.640625 218.867188 126.441406 218.867188 Z M 126.441406 246.964844 L 26.535156 246.964844 C 23.335938 246.964844 20.742188 244.371094 20.742188 241.171875 C 20.742188 237.96875 23.335938 235.375 26.535156 235.375 L 126.4375 235.375 C 127.976562 235.375 129.449219 235.988281 130.535156 237.074219 C 131.621094 238.160156 132.234375 239.632812 132.234375 241.171875 C 132.234375 242.707031 131.625 244.179688 130.535156 245.269531 C 129.449219 246.355469 127.976562 246.964844 126.441406 246.964844 Z M 26.535156 275.0625 C 23.335938 275.0625 20.742188 272.46875 20.742188 269.269531 C 20.742188 266.070312 23.335938 263.472656 26.535156 263.472656 L 126.4375 263.472656 C 129.640625 263.472656 132.234375 266.070312 132.234375 269.269531 C 132.234375 272.46875 129.640625 275.0625 126.4375 275.0625 Z M 126.441406 303.160156 L 26.535156 303.160156 C 23.335938 303.160156 20.742188 300.566406 20.742188 297.367188 C 20.742188 294.164062 23.335938 291.570312 26.535156 291.570312 L 126.4375 291.570312 C 127.976562 291.570312 129.449219 292.183594 130.535156 293.269531 C 131.621094 294.355469 132.234375 295.828125 132.234375 297.367188 C 132.234375 298.902344 131.625 300.375 130.535156 301.464844 C 129.449219 302.550781 127.976562 303.160156 126.441406 303.160156 Z M 126.441406 331.257812 L 26.535156 331.257812 C 23.335938 331.257812 20.742188 328.664062 20.742188 325.464844 C 20.742188 322.265625 23.335938 319.667969 26.535156 319.667969 L 126.4375 319.667969 C 127.976562 319.667969 129.449219 320.28125 130.535156 321.367188 C 131.621094 322.453125 132.234375 323.925781 132.234375 325.464844 C 132.234375 327 131.625 328.472656 130.535156 329.5625 C 129.449219 330.648438 127.976562 331.257812 126.441406 331.257812 Z M 126.441406 359.355469 L 26.535156 359.355469 C 23.335938 359.355469 20.742188 356.761719 20.742188 353.5625 C 20.742188 350.359375 23.335938 347.765625 26.535156 347.765625 L 126.4375 347.765625 C 127.976562 347.765625 129.449219 348.378906 130.535156 349.464844 C 131.621094 350.550781 132.234375 352.023438 132.234375 353.5625 C 132.234375 355.097656 131.625 356.570312 130.535156 357.660156 C 129.449219 358.746094 127.976562 359.355469 126.441406 359.355469 Z M 195.121094 359.355469 L 160.78125 359.355469 C 157.582031 359.355469 154.984375 356.761719 154.984375 353.5625 C 154.984375 350.359375 157.582031 347.765625 160.78125 347.765625 L 195.121094 347.765625 C 198.320312 347.765625 200.914062 350.359375 200.914062 353.558594 C 200.914062 356.757812 198.320312 359.351562 195.121094 359.351562 Z M 205.191406 331.257812 L 160.78125 331.257812 C 157.582031 331.257812 154.988281 328.664062 154.988281 325.464844 C 154.988281 322.265625 157.582031 319.667969 160.78125 319.667969 L 205.191406 319.667969 C 208.355469 319.71875 210.890625 322.300781 210.890625 325.464844 C 210.890625 328.628906 208.355469 331.207031 205.191406 331.257812 Z M 221.578125 303.160156 L 160.78125 303.160156 C 157.582031 303.160156 154.988281 300.566406 154.988281 297.367188 C 154.988281 294.164062 157.582031 291.570312 160.78125 291.570312 L 221.578125 291.570312 C 224.78125 291.570312 227.375 294.164062 227.375 297.367188 C 227.375 300.566406 224.78125 303.160156 221.578125 303.160156 Z M 160.78125 275.0625 C 157.582031 275.0625 154.984375 272.46875 154.984375 269.269531 C 154.984375 266.070312 157.582031 263.472656 160.78125 263.472656 L 237.972656 263.472656 L 237.96875 263.472656 C 241.171875 263.472656 243.765625 266.070312 243.765625 269.269531 C 243.765625 272.46875 241.171875 275.0625 237.96875 275.0625 Z M 254.359375 246.964844 L 160.78125 246.964844 C 157.582031 246.964844 154.984375 244.371094 154.984375 241.171875 C 154.984375 237.96875 157.582031 235.375 160.78125 235.375 L 254.359375 235.375 C 257.558594 235.375 260.15625 237.96875 260.15625 241.171875 C 260.15625 244.371094 257.558594 246.964844 254.359375 246.964844 Z M 268.410156 218.867188 L 160.78125 218.867188 C 157.582031 218.867188 154.984375 216.273438 154.984375 213.074219 C 154.984375 209.875 157.582031 207.277344 160.78125 207.277344 L 268.410156 207.277344 C 269.945312 207.277344 271.421875 207.890625 272.507812 208.976562 C 273.59375 210.0625 274.203125 211.535156 274.203125 213.074219 C 274.203125 214.609375 273.59375 216.085938 272.507812 217.171875 C 271.421875 218.257812 269.945312 218.867188 268.410156 218.867188 Z M 268.410156 218.867188 " />
</g><g id="Blog_free_icon_kjmBRs0-9"><path style=" stroke:none;fill-rule:nonzero;fill:#3f7094;fill-opacity:1;" d="M 193.246094 384 C 192.230469 384 191.234375 383.730469 190.355469 383.222656 C 189.023438 382.453125 188.054688 381.1875 187.65625 379.703125 C 187.257812 378.21875 187.464844 376.636719 188.234375 375.308594 L 198.359375 357.769531 C 199.128906 356.4375 200.394531 355.464844 201.878906 355.066406 C 203.363281 354.671875 204.945312 354.878906 206.273438 355.648438 C 207.605469 356.417969 208.578125 357.683594 208.976562 359.167969 C 209.371094 360.652344 209.164062 362.230469 208.394531 363.5625 L 198.269531 381.101562 C 197.234375 382.898438 195.320312 384.003906 193.246094 384 Z M 193.246094 384 " />
</g><g id="Blog_free_icon_kjmBRs0-10"><path style=" stroke:none;fill-rule:nonzero;fill:#de75a5;fill-opacity:1;" d="M 370.980469 120.324219 L 327.71875 95.347656 L 338.644531 76.421875 C 342.953125 68.957031 352.5 66.398438 359.96875 70.707031 L 376.191406 80.074219 C 383.65625 84.382812 386.214844 93.929688 381.90625 101.398438 Z M 370.980469 120.324219 " />
</g><g id="Blog_free_icon_kjmBRs0-11"><path style=" stroke:none;fill-rule:nonzero;fill:#dd5ba3;fill-opacity:1;" d="M 376.191406 80.074219 L 361.320312 71.488281 C 368.785156 75.796875 371.34375 85.34375 367.035156 92.8125 L 356.109375 111.738281 L 370.980469 120.324219 L 381.90625 101.398438 C 386.214844 93.933594 383.660156 84.386719 376.191406 80.074219 Z M 376.191406 80.074219 " />
</g><g id="Blog_free_icon_kjmBRs0-12"><path style=" stroke:none;fill-rule:nonzero;fill:#fedf7e;fill-opacity:1;" d="M 229.402344 355.691406 L 207.199219 367.191406 C 202.140625 369.808594 196.074219 366.304688 195.8125 360.617188 L 194.671875 335.640625 L 194.671875 335.636719 C 194.402344 329.679688 195.839844 323.765625 198.824219 318.601562 L 315.234375 116.976562 L 358.492188 141.953125 L 242.082031 343.578125 C 239.101562 348.742188 234.699219 352.945312 229.402344 355.691406 Z M 229.402344 355.691406 " />
</g><g id="Blog_free_icon_kjmBRs0-13"><path style=" stroke:none;fill-rule:nonzero;fill:#fecf64;fill-opacity:1;" d="M 343.621094 133.367188 L 227.214844 334.992188 C 224.230469 340.15625 219.832031 344.359375 214.535156 347.105469 L 195.648438 356.886719 L 195.820312 360.613281 C 196.082031 366.304688 202.148438 369.804688 207.207031 367.1875 L 229.410156 355.6875 L 229.40625 355.6875 C 234.703125 352.945312 239.101562 348.742188 242.082031 343.578125 L 358.492188 141.953125 Z M 343.621094 133.367188 " />
</g><g id="Blog_free_icon_kjmBRs0-14"><path style=" stroke:none;fill-rule:nonzero;fill:#4a7fab;fill-opacity:1;" d="M 359.84375 142.734375 L 313.878906 116.199219 L 313.878906 116.195312 C 310.894531 114.472656 309.871094 110.652344 311.59375 107.667969 L 317.835938 96.851562 L 317.839844 96.851562 C 319.5625 93.867188 323.382812 92.84375 326.367188 94.566406 L 372.332031 121.101562 L 372.332031 121.105469 C 375.316406 122.828125 376.339844 126.648438 374.617188 129.632812 L 368.375 140.449219 L 368.371094 140.449219 C 366.648438 143.433594 362.828125 144.457031 359.84375 142.734375 Z M 359.84375 142.734375 " />
</g></g>
</svg>